<svg width="159" height="42" viewBox="0 0 159 42" fill="none" xmlns="http://www.w3.org/2000/svg">
<path d="M31.1047 18.5084C30.5253 19.0912 30.0817 19.7947 29.8054 20.5685C29.529 21.3424 29.4268 22.1676 29.5058 22.9856L29.4783 22.9581C29.5596 23.9209 29.4297 24.8897 29.0978 25.7972C28.766 26.7046 28.2401 27.5287 27.557 28.2119C26.8737 28.895 26.0497 29.421 25.1422 29.7527C24.2348 30.0846 23.2658 30.2145 22.3032 30.1332L22.3307 30.1607C21.179 30.0535 20.0224 30.3041 19.0183 30.8784C18.0143 31.4526 17.2118 32.3226 16.7204 33.3696C16.2289 34.4167 16.0722 35.5897 16.2719 36.7291C16.4717 37.8684 17.0178 38.9183 17.8361 39.7358C18.6543 40.5533 19.7047 41.0985 20.8441 41.2971C21.9837 41.4958 23.1566 41.3381 24.2032 40.8457C25.2498 40.3532 26.1189 39.5501 26.6923 38.5455C27.2657 37.5409 27.5153 36.3841 27.4071 35.2325L27.4361 35.26C27.3548 34.2973 27.4845 33.3284 27.8164 32.4208C28.1483 31.5135 28.6742 30.6894 29.3574 30.0062C30.0406 29.323 30.8647 28.7971 31.772 28.4654C32.6796 28.1335 33.6484 28.0036 34.6112 28.0849L34.5822 28.0574C35.5229 28.1419 36.4698 27.9877 37.3351 27.6089C38.2003 27.2301 38.956 26.639 39.532 25.8905C40.108 25.1419 40.4858 24.26 40.6301 23.3266C40.7746 22.3931 40.681 21.4384 40.3582 20.5506C40.0353 19.6629 39.4936 18.8711 38.7833 18.2485C38.073 17.626 37.217 17.1928 36.2946 16.9891C35.3723 16.7855 34.4134 16.8179 33.507 17.0835C32.6005 17.3491 31.7759 17.8392 31.1093 18.5084H31.1047Z" fill="#DDF247"/>
<path d="M19.8261 26.5563L19.797 26.5288C20.6153 26.6112 21.4416 26.5107 22.2164 26.2347C22.9911 25.9586 23.6949 25.514 24.2766 24.9326C24.8583 24.3513 25.3037 23.6479 25.5802 22.8733C25.8569 22.0988 25.9579 21.2726 25.8761 20.4542L25.9052 20.4817C25.8239 19.5189 25.9538 18.5501 26.2855 17.6426C26.6173 16.7352 27.1433 15.9112 27.8264 15.2279C28.5097 14.5448 29.3338 14.0188 30.2411 13.6871C31.1486 13.3552 32.1175 13.2254 33.0803 13.3066L33.0513 13.2791C34.203 13.3873 35.36 13.1375 36.3646 12.5639C37.3693 11.9903 38.1724 11.1207 38.6646 10.0739C39.1568 9.027 39.3141 7.85377 39.1151 6.71421C38.9161 5.57464 38.3704 4.52424 37.5523 3.70624C36.7344 2.88825 35.6839 2.34249 34.5444 2.14344C33.4048 1.94437 32.2316 2.10168 31.1847 2.59391C30.1378 3.08613 29.2684 3.88931 28.6947 4.89391C28.121 5.89848 27.8712 7.05557 27.9795 8.20731L27.9519 8.17827C28.0334 9.1411 27.9038 10.1101 27.5721 11.0177C27.2404 11.9252 26.7144 12.7494 26.0313 13.4327C25.348 14.1159 24.5238 14.6418 23.6163 14.9735C22.7086 15.3052 21.7397 15.4349 20.7768 15.3534L20.8043 15.3824C19.9861 15.3 19.1596 15.4005 18.3849 15.6765C17.6102 15.9524 16.9065 16.3972 16.3247 16.9786C15.7429 17.5599 15.2977 18.2633 15.021 19.0379C14.7445 19.8124 14.6434 20.6386 14.7252 21.457L14.6977 21.4295C14.7787 22.3922 14.6486 23.361 14.3168 24.2683C13.9848 25.1755 13.4589 25.9996 12.7758 26.6827C12.0926 27.3658 11.2687 27.8916 10.3614 28.2237C9.45409 28.5555 8.4853 28.6856 7.52259 28.6046L7.5501 28.6321C6.39835 28.5239 5.24127 28.7736 4.23668 29.3473C3.2321 29.921 2.42891 30.7904 1.9367 31.8373C1.44447 32.8843 1.28715 34.0574 1.48621 35.197C1.68528 36.3365 2.23104 37.387 3.04902 38.2049C3.86702 39.023 4.91743 39.5687 6.05699 39.7677C7.19656 39.9668 8.36978 39.8095 9.41665 39.3173C10.4635 38.8251 11.3331 38.0219 11.9067 37.0174C12.4804 36.0126 12.7301 34.8557 12.6219 33.7039L12.6509 33.7314C12.5696 32.7686 12.6996 31.7997 13.0314 30.8922C13.3631 29.9849 13.8891 29.1608 14.5722 28.4775C15.2555 27.7944 16.0795 27.2684 16.9869 26.9367C17.8944 26.6049 18.8632 26.475 19.8261 26.5563Z" fill="#DDF247"/>
<path d="M9.58399 23.4883C10.1633 22.9056 10.6069 22.2022 10.883 21.4282C11.1592 20.6543 11.261 19.8289 11.1813 19.0111L11.2104 19.0386C11.1291 18.0756 11.2589 17.1064 11.5909 16.1987C11.923 15.291 12.4491 14.4668 13.1327 13.7835C13.8163 13.1003 14.6407 12.5745 15.5485 12.2429C16.4563 11.9112 17.4256 11.7818 18.3886 11.8635L18.3595 11.836C19.5108 11.9439 20.6675 11.694 21.6716 11.1204C22.6757 10.5468 23.4784 9.67747 23.9704 8.63093C24.4623 7.58438 24.6195 6.41159 24.4205 5.27245C24.2214 4.13331 23.6757 3.08331 22.8581 2.26561C22.0405 1.44792 20.9903 0.902339 19.8512 0.703289C18.7122 0.504223 17.5393 0.661391 16.4928 1.15332C15.4462 1.64524 14.5769 2.448 14.0034 3.45212C13.4297 4.45624 13.1798 5.61285 13.2877 6.7642L13.2602 6.73668C13.3415 7.69945 13.2116 8.66837 12.8797 9.57579C12.5479 10.4832 12.0221 11.3073 11.3389 11.9905C10.6557 12.6737 9.8316 13.1996 8.92418 13.5313C8.01676 13.8632 7.04786 13.9931 6.08509 13.9118L6.1126 13.9393C5.17187 13.8549 4.22506 14.0095 3.35992 14.3884C2.49478 14.7673 1.73928 15.3586 1.16346 16.1073C0.587627 16.8558 0.2101 17.7378 0.0658339 18.6712C-0.0784174 19.6047 0.0152688 20.5594 0.33821 21.4469C0.661151 22.3345 1.20292 23.1262 1.9133 23.7486C2.62367 24.3712 3.47967 24.8042 4.40198 25.0079C5.32427 25.2113 6.28304 25.1787 7.18944 24.9132C8.09582 24.6476 8.92048 24.1575 9.58703 23.4883H9.58399Z" fill="#DDF247"/>
<path d="M59.0157 29V11.48H62.9517V29H59.0157ZM62.4717 21.944V18.68H69.2397V21.944H62.4717ZM62.4717 14.744V11.48H69.5277V14.744H62.4717ZM72.7128 29V15.848H76.5528V29H72.7128ZM70.9608 18.68V15.848H76.5528V18.68H70.9608ZM74.2008 14.552C73.4808 14.552 72.9448 14.368 72.5928 14C72.2568 13.616 72.0888 13.136 72.0888 12.56C72.0888 11.968 72.2568 11.488 72.5928 11.12C72.9448 10.736 73.4808 10.544 74.2008 10.544C74.9208 10.544 75.4488 10.736 75.7848 11.12C76.1368 11.488 76.3128 11.968 76.3128 12.56C76.3128 13.136 76.1368 13.616 75.7848 14C75.4488 14.368 74.9208 14.552 74.2008 14.552ZM80.1044 29V15.848H83.1524V21.488H82.9364C82.9364 20.144 83.1044 19.024 83.4404 18.128C83.7924 17.232 84.3204 16.56 85.0244 16.112C85.7284 15.664 86.5844 15.44 87.5924 15.44H87.7604C89.2964 15.44 90.4644 15.944 91.2644 16.952C92.0804 17.944 92.4884 19.456 92.4884 21.488V29H88.6484V21.272C88.6484 20.568 88.4404 19.992 88.0244 19.544C87.6084 19.096 87.0484 18.872 86.3444 18.872C85.6244 18.872 85.0404 19.104 84.5924 19.568C84.1604 20.016 83.9444 20.608 83.9444 21.344V29H80.1044ZM102.169 29.456C101.017 29.456 99.9927 29.28 99.0967 28.928C98.2007 28.56 97.4407 28.064 96.8167 27.44C96.2087 26.816 95.7447 26.104 95.4247 25.304C95.1047 24.488 94.9447 23.632 94.9447 22.736V22.184C94.9447 21.272 95.1047 20.408 95.4247 19.592C95.7607 18.76 96.2407 18.032 96.8647 17.408C97.5047 16.784 98.2727 16.296 99.1687 15.944C100.065 15.576 101.065 15.392 102.169 15.392C103.305 15.392 104.313 15.576 105.193 15.944C106.089 16.296 106.849 16.784 107.473 17.408C108.097 18.032 108.577 18.76 108.913 19.592C109.249 20.408 109.417 21.272 109.417 22.184V22.736C109.417 23.632 109.257 24.488 108.937 25.304C108.617 26.104 108.145 26.816 107.521 27.44C106.913 28.064 106.161 28.56 105.265 28.928C104.369 29.28 103.337 29.456 102.169 29.456ZM102.169 26.216C102.921 26.216 103.545 26.056 104.041 25.736C104.537 25.416 104.913 24.968 105.169 24.392C105.441 23.816 105.577 23.176 105.577 22.472C105.577 21.72 105.441 21.064 105.169 20.504C104.897 19.928 104.505 19.472 103.993 19.136C103.497 18.8 102.889 18.632 102.169 18.632C101.465 18.632 100.857 18.8 100.345 19.136C99.8327 19.472 99.4407 19.928 99.1687 20.504C98.9127 21.064 98.7847 21.72 98.7847 22.472C98.7847 23.176 98.9127 23.816 99.1687 24.392C99.4247 24.968 99.8087 25.416 100.321 25.736C100.833 26.056 101.449 26.216 102.169 26.216ZM112.097 29V11.48H115.937V21.584H115.361C115.361 20.256 115.529 19.136 115.865 18.224C116.201 17.312 116.697 16.624 117.353 16.16C118.009 15.68 118.833 15.44 119.825 15.44H119.993C121.449 15.44 122.561 15.96 123.329 17C124.097 18.024 124.481 19.528 124.481 21.512V29H120.641V21.272C120.641 20.552 120.425 19.976 119.993 19.544C119.577 19.096 119.025 18.872 118.337 18.872C117.617 18.872 117.033 19.104 116.585 19.568C116.153 20.032 115.937 20.648 115.937 21.416V29H112.097ZM132.193 29.408C130.673 29.408 129.505 28.92 128.689 27.944C127.873 26.952 127.465 25.464 127.465 23.48V15.848H131.305V23.672C131.305 24.376 131.505 24.936 131.905 25.352C132.305 25.768 132.841 25.976 133.513 25.976C134.201 25.976 134.761 25.76 135.193 25.328C135.625 24.896 135.841 24.312 135.841 23.576V15.848H139.681V29H136.633V23.456H136.897C136.897 24.784 136.721 25.896 136.369 26.792C136.033 27.672 135.529 28.328 134.857 28.76C134.185 29.192 133.353 29.408 132.361 29.408H132.193ZM151.31 29.432C150.238 29.432 149.294 29.208 148.478 28.76C147.662 28.296 147.022 27.632 146.558 26.768C146.094 25.904 145.846 24.848 145.814 23.6H146.27V29H143.222V11.48H147.062V20.384L146.15 21.536C146.198 20.208 146.446 19.096 146.894 18.2C147.358 17.288 147.99 16.608 148.79 16.16C149.59 15.696 150.502 15.464 151.526 15.464C152.422 15.464 153.23 15.632 153.95 15.968C154.686 16.288 155.31 16.752 155.822 17.36C156.334 17.952 156.726 18.656 156.998 19.472C157.286 20.288 157.43 21.176 157.43 22.136V22.664C157.43 23.624 157.286 24.512 156.998 25.328C156.726 26.144 156.318 26.864 155.774 27.488C155.246 28.096 154.606 28.576 153.854 28.928C153.102 29.264 152.254 29.432 151.31 29.432ZM150.302 26.216C150.958 26.216 151.526 26.056 152.006 25.736C152.502 25.416 152.886 24.968 153.158 24.392C153.43 23.8 153.566 23.136 153.566 22.4C153.566 21.648 153.43 20.992 153.158 20.432C152.886 19.872 152.502 19.44 152.006 19.136C151.526 18.816 150.958 18.656 150.302 18.656C149.726 18.656 149.182 18.792 148.67 19.064C148.158 19.336 147.742 19.728 147.422 20.24C147.118 20.736 146.966 21.344 146.966 22.064V22.952C146.966 23.64 147.126 24.232 147.446 24.728C147.782 25.208 148.206 25.576 148.718 25.832C149.23 26.088 149.758 26.216 150.302 26.216Z" fill="#DDF247"/>
</svg>
