<svg width="27" height="27" viewBox="0 0 27 27" fill="none" xmlns="http://www.w3.org/2000/svg">
<path d="M4.99992 26.6666C2.42259 26.6666 0.333252 24.5773 0.333252 22C0.333252 19.4226 2.42259 17.3333 4.99992 17.3333C7.11325 17.3333 8.89858 18.7386 9.47325 20.6666H16.9999V18H19.6666V10.3226L16.6759 7.33331H8.99992V9.99998H0.999919V1.99998H8.99992V4.66664H16.6759L20.9999 0.341309L26.6573 5.99998L22.3333 10.3213V18H24.9999V26H16.9999V23.3333H9.47325C8.89992 25.2613 7.11325 26.6666 4.99992 26.6666ZM4.99992 20C3.89592 20 2.99992 20.896 2.99992 22C2.99992 23.104 3.89592 24 4.99992 24C6.10392 24 6.99992 23.104 6.99992 22C6.99992 20.896 6.10392 20 4.99992 20ZM22.3333 20.6666H19.6666V23.3333H22.3333V20.6666ZM20.9999 4.11464L19.1146 5.99998L20.9999 7.88531L22.8853 5.99998L20.9999 4.11464ZM6.33325 4.66664H3.66658V7.33331H6.33325V4.66664Z" fill="#DDF247"/>
</svg>
