<svg width="28" height="28" viewBox="0 0 28 28" fill="none" xmlns="http://www.w3.org/2000/svg">
<path d="M24.6667 19.3333H27.3334V27.3333H19.3334V24.6666H8.66675V27.3333H0.666748V19.3333H3.33341V8.66663H0.666748V0.666626H8.66675V3.33329H19.3334V0.666626H27.3334V8.66663H24.6667V19.3333ZM22.0001 19.3333V8.66663H19.3334V5.99996H8.66675V8.66663H6.00008V19.3333H8.66675V22H19.3334V19.3333H22.0001ZM3.33341 3.33329V5.99996H6.00008V3.33329H3.33341ZM3.33341 22V24.6666H6.00008V22H3.33341ZM22.0001 3.33329V5.99996H24.6667V3.33329H22.0001ZM22.0001 22V24.6666H24.6667V22H22.0001Z" fill="#DDF247"/>
</svg>
