<svg width="388" height="226" viewBox="0 0 388 226" fill="none" xmlns="http://www.w3.org/2000/svg">
<path d="M386.171 22.9094C387.287 23.7312 387.584 25.333 386.835 26.4871C386.086 27.6413 384.575 27.9107 383.459 27.0889L386.171 22.9094ZM277.986 6.58373L278.567 9.09074L278.413 9.12623L278.255 9.14018L277.986 6.58373ZM150.752 94.3512L152.941 95.5337L152.941 95.534L150.752 94.3512ZM251.428 136.224L249.051 135.605L249.052 135.604L251.428 136.224ZM6.03854 203.776C4.69812 203.835 3.53613 202.735 3.44317 201.32C3.3502 199.904 4.36146 198.709 5.70188 198.65L6.03854 203.776ZM24.3682 176.869C25.3553 175.937 26.8945 176.046 27.8061 177.113C28.7176 178.18 28.6563 179.801 27.6692 180.733L24.3682 176.869ZM2.74823 200.775L1.00592 202.515C0.547665 202.006 0.298928 201.329 0.316215 200.637C0.333502 199.946 0.615367 199.299 1.09775 198.844L2.74823 200.775ZM24.0823 220.795C25.0201 221.837 25.0002 223.46 24.0379 224.42C23.0757 225.381 21.5354 225.315 20.5976 224.274L24.0823 220.795ZM384.815 24.9991C383.459 27.0889 383.46 27.0894 383.46 27.0898C383.46 27.0898 383.461 27.0901 383.461 27.09C383.46 27.0898 383.459 27.0892 383.458 27.0881C383.455 27.0859 383.449 27.0817 383.441 27.0755C383.424 27.0633 383.396 27.0434 383.358 27.0161C383.282 26.9615 383.163 26.8774 383.003 26.7663C382.682 26.5439 382.195 26.2133 381.549 25.7939C380.255 24.9549 378.324 23.761 375.806 22.3671C370.768 19.5785 363.393 15.9941 354.093 12.8481C335.497 6.55738 309.235 2.02768 278.567 9.09074L277.405 4.07671C309.077 -3.21783 336.23 1.46017 355.463 7.96653C365.078 11.2192 372.721 14.9306 377.974 17.8383C380.6 19.2925 382.632 20.5469 384.015 21.4441C384.706 21.8927 385.236 22.2522 385.598 22.5029C385.778 22.6283 385.917 22.7265 386.013 22.795C386.061 22.8293 386.098 22.8562 386.124 22.8753C386.138 22.8849 386.148 22.8926 386.156 22.8983C386.16 22.9011 386.163 22.9035 386.166 22.9053C386.167 22.9062 386.168 22.9073 386.169 22.9077C386.17 22.9086 386.171 22.9094 384.815 24.9991ZM277.986 6.58373C278.255 9.14018 278.256 9.14013 278.256 9.1401C278.256 9.14014 278.256 9.14014 278.255 9.14021C278.254 9.14035 278.251 9.1406 278.247 9.14099C278.238 9.14175 278.224 9.14304 278.205 9.14485C278.167 9.1485 278.107 9.15431 278.027 9.16252C277.866 9.17895 277.622 9.205 277.298 9.24263C276.652 9.31786 275.69 9.43935 274.447 9.62258C271.961 9.98909 268.352 10.6024 263.9 11.5862C254.992 13.5547 242.725 17.002 229.314 22.9115C202.476 34.7371 171.214 56.3457 152.941 95.5337L148.563 93.1687C167.502 52.5511 199.857 30.2759 227.333 18.1692C241.079 12.1125 253.644 8.58152 262.777 6.56323C267.346 5.55368 271.061 4.92147 273.644 4.54083C274.935 4.35049 275.943 4.22298 276.633 4.14263C276.979 4.10245 277.244 4.07406 277.426 4.05549C277.517 4.0462 277.587 4.03938 277.636 4.03476C277.66 4.03244 277.679 4.03069 277.693 4.02945C277.699 4.02883 277.705 4.02835 277.709 4.02799C277.711 4.02781 277.713 4.02763 277.714 4.02754C277.715 4.02739 277.717 4.02728 277.986 6.58373ZM152.941 95.534C143.904 114.908 144.846 130.563 151.024 142.29C157.262 154.128 169.101 162.472 182.738 166.555C196.364 170.635 211.478 170.357 223.909 165.292C236.283 160.25 245.92 150.521 249.051 135.605L253.804 136.844C250.271 153.672 239.338 164.557 225.77 170.085C212.26 175.59 196.058 175.838 181.529 171.488C167.01 167.141 153.854 158.1 146.786 144.686C139.66 131.16 138.989 113.695 148.563 93.1685L152.941 95.534ZM249.052 135.604C252.258 120.344 249.485 108.179 243.133 99.3117C236.745 90.3946 226.503 84.4901 214.248 82.2908C189.721 77.889 157.687 88.4837 135.197 118.39L131.352 115.135C154.828 83.9181 188.543 72.4969 214.936 77.2334C228.141 79.6033 239.653 86.0564 246.986 96.2915C254.354 106.577 257.268 120.358 253.804 136.845L249.052 135.604ZM135.197 118.39C88.9721 179.855 48.6333 201.899 6.03854 203.776L5.70188 198.65C46.45 196.854 85.6425 175.915 131.352 115.135L135.197 118.39ZM27.6692 180.733L4.39873 202.707L1.09775 198.844L24.3682 176.869L27.6692 180.733ZM4.49056 199.036L24.0823 220.795L20.5976 224.274L1.00592 202.515L4.49056 199.036Z" fill="#DDF247"/>
</svg>
