<svg width="28" height="28" viewBox="0 0 28 28" fill="none" xmlns="http://www.w3.org/2000/svg">
<path d="M12.6667 0.733389V3.41606C7.40541 4.07206 3.33341 8.56006 3.33341 14.0001C3.33341 19.8907 8.10941 24.6667 14.0001 24.6667C16.4654 24.6667 18.7334 23.8307 20.5414 22.4267L22.4387 24.3241C20.1401 26.2041 17.2001 27.3334 14.0001 27.3334C6.63608 27.3334 0.666748 21.3641 0.666748 14.0001C0.666748 7.08672 5.92941 1.40139 12.6667 0.733389ZM27.2668 15.3334C27.0001 18.0147 25.9414 20.4627 24.3241 22.4374L22.4267 20.5414C23.5734 19.0654 24.3414 17.2814 24.5841 15.3334H27.2668ZM15.3361 0.733389C21.6347 1.35872 26.6427 6.36806 27.2694 12.6667H24.5854C23.9841 7.84272 20.1601 4.01872 15.3361 3.41606V0.733389Z" fill="#DDF247"/>
</svg>
